{
  "accessors": [
    {
      "bufferView": 2,
      "componentType": 5126,
      "count": 373,
      "max": [
        0.4794299900531769,
        1.738357663154602,
        0.4816455543041229
      ],
      "min": [
        -0.6796280741691589,
        -0.07525832206010818,
        -0.7781538963317871
      ],
      "type": "VEC3"
    },
    {
      "bufferView": 2,
      "byteOffset": 4476,
      "componentType": 5126,
      "count": 373,
      "max": [
        0.9988003373146057,
        0.9845747947692871,
        0.9951246976852417
      ],
      "min": [
        -0.999692976474762,
        -0.9761006832122803,
        -0.9984774589538574
      ],
      "type": "VEC3"
    },
    {
      "bufferView": 3,
      "componentType": 5126,
      "count": 373,
      "max": [
        0.2980392277240753,
        0.8784313797950745,
        0.4745098054409027,
        1.0
      ],
      "min": [
        0.07450980693101883,
        0.239215686917305,
        0.062745101749897,
        1.0
      ],
      "type": "VEC4"
    },
    {
      "bufferView": 1,
      "componentType": 5126,
      "count": 373,
      "max": [
        0.9980467557907104,
        0.9855965971946716
      ],
      "min": [
        0.0019531218567863107,
        0.0019531259313225746
      ],
      "type": "VEC2"
    },
    {
      "bufferView": 0,
      "componentType": 5125,
      "count": 1608,
      "type": "SCALAR"
    }
  ],
  "asset": {
    "extras": {
      "author": "Xillute | Dev (https://sketchfab.com/janchristian)",
      "license": "CC-BY-4.0 (http://creativecommons.org/licenses/by/4.0/)",
      "source": "https://sketchfab.com/3d-models/spine-grass-f354209291c04e2ea8a2714179bd7bae",
      "title": "Spine Grass"
    },
    "generator": "Sketchfab-12.64.0",
    "version": "2.0"
  },
  "bufferViews": [
    {
      "buffer": 0,
      "byteLength": 6432,
      "name": "floatBufferViews",
      "target": 34963
    },
    {
      "buffer": 0,
      "byteLength": 2984,
      "byteOffset": 6432,
      "byteStride": 8,
      "name": "floatBufferViews",
      "target": 34962
    },
    {
      "buffer": 0,
      "byteLength": 8952,
      "byteOffset": 9416,
      "byteStride": 12,
      "name": "floatBufferViews",
      "target": 34962
    },
    {
      "buffer": 0,
      "byteLength": 5968,
      "byteOffset": 18368,
      "byteStride": 16,
      "name": "floatBufferViews",
      "target": 34962
    }
  ],
  "buffers": [
    {
      "byteLength": 24336,
      "uri": "scene.bin"
    }
  ],
  "materials": [
    {
      "doubleSided": true,
      "name": "material0",
      "pbrMetallicRoughness": {
        "baseColorFactor": [
          0.5,
          0.5,
          0.5,
          1.0
        ],
        "metallicFactor": 0.4346417682926829,
        "roughnessFactor": 0.7273246951219513
      }
    }
  ],
  "meshes": [
    {
      "name": "PM3D_Sphere3D2_material0_0",
      "primitives": [
        {
          "attributes": {
            "COLOR_0": 2,
            "NORMAL": 1,
            "POSITION": 0,
            "TEXCOORD_0": 3
          },
          "indices": 4,
          "material": 0,
          "mode": 4
        }
      ]
    }
  ],
  "nodes": [
    {
      "children": [
        1
      ],
      "matrix": [
        1.0,
        0.0,
        0.0,
        0.0,
        0.0,
        2.220446049250313e-16,
        -1.0,
        0.0,
        0.0,
        1.0,
        2.220446049250313e-16,
        0.0,
        0.0,
        0.0,
        0.0,
        1.0
      ],
      "name": "Sketchfab_model"
    },
    {
      "children": [
        2
      ],
      "matrix": [
        1.0,
        0.0,
        0.0,
        0.0,
        0.0,
        0.0,
        1.0,
        0.0,
        0.0,
        -1.0,
        0.0,
        0.0,
        0.0,
        0.0,
        0.0,
        1.0
      ],
      "name": "95f77559f1594f89879f672e50201063.fbx"
    },
    {
      "children": [
        3
      ],
      "name": "RootNode"
    },
    {
      "children": [
        4
      ],
      "name": "PM3D_Sphere3D2"
    },
    {
      "mesh": 0,
      "name": "PM3D_Sphere3D2_material0_0"
    }
  ],
  "scene": 0,
  "scenes": [
    {
      "name": "Sketchfab_Scene",
      "nodes": [
        0
      ]
    }
  ]
}
