{
  "accessors": [
    {
      "bufferView": 2,
      "componentType": 5126,
      "count": 17195,
      "max": [
        5.270546913146973,
        17.59561538696289,
        1.833031415939331
      ],
      "min": [
        -5.2705464363098145,
        -1.0082371234893799,
        -1.833031415939331
      ],
      "type": "VEC3"
    },
    {
      "bufferView": 2,
      "byteOffset": 206340,
      "componentType": 5126,
      "count": 17195,
      "max": [
        1.0,
        1.0,
        1.0
      ],
      "min": [
        -1.0,
        -1.0,
        -1.0
      ],
      "type": "VEC3"
    },
    {
      "bufferView": 1,
      "componentType": 5126,
      "count": 17195,
      "max": [
        0.9830174446105957,
        0.9769225120544434
      ],
      "min": [
        0.0,
        0.0
      ],
      "type": "VEC2"
    },
    {
      "bufferView": 0,
      "componentType": 5125,
      "count": 95004,
      "type": "SCALAR"
    }
  ],
  "asset": {
    "extras": {
      "author": "PixelCuak (https://sketchfab.com/PixelCuak)",
      "license": "CC-BY-NC-ND-4.0 (http://creativecommons.org/licenses/by-nc-nd/4.0/)",
      "source": "https://sketchfab.com/3d-models/final-boss-key-a9fc4119c3874b9cb4ee2fa454cad578",
      "title": "Final Boss Key"
    },
    "generator": "Sketchfab-12.68.0",
    "version": "2.0"
  },
  "bufferViews": [
    {
      "buffer": 0,
      "byteLength": 380016,
      "name": "floatBufferViews",
      "target": 34963
    },
    {
      "buffer": 0,
      "byteLength": 137560,
      "byteOffset": 380016,
      "byteStride": 8,
      "name": "floatBufferViews",
      "target": 34962
    },
    {
      "buffer": 0,
      "byteLength": 412680,
      "byteOffset": 517576,
      "byteStride": 12,
      "name": "floatBufferViews",
      "target": 34962
    }
  ],
  "buffers": [
    {
      "byteLength": 930256,
      "uri": "scene.bin"
    }
  ],
  "images": [
    {
      "uri": "textures/blinn2_baseColor.jpeg"
    }
  ],
  "materials": [
    {
      "doubleSided": true,
      "name": "blinn2",
      "pbrMetallicRoughness": {
        "baseColorTexture": {
          "index": 0
        },
        "metallicFactor": 0.4,
        "roughnessFactor": 0.8414967632
      }
    }
  ],
  "meshes": [
    {
      "name": "pCylinder9_blinn2_0",
      "primitives": [
        {
          "attributes": {
            "NORMAL": 1,
            "POSITION": 0,
            "TEXCOORD_0": 2
          },
          "indices": 3,
          "material": 0,
          "mode": 4
        }
      ]
    }
  ],
  "nodes": [
    {
      "children": [
        1
      ],
      "matrix": [
        1.0,
        -1.608122622957729e-16,
        -1.6081226229577294e-16,
        0.0,
        -1.6081226229577292e-16,
        3.828568672208042e-16,
        -1.0,
        0.0,
        1.6081226229577292e-16,
        1.0,
        3.828568672208042e-16,
        0.0,
        -1.514411900461858e-15,
        3.362673682900114e-31,
        -1.5144135945277526e-15,
        1.0
      ],
      "name": "Sketchfab_model"
    },
    {
      "children": [
        2
      ],
      "matrix": [
        1.0,
        0.0,
        0.0,
        0.0,
        0.0,
        0.0,
        1.0,
        0.0,
        0.0,
        -1.0,
        0.0,
        0.0,
        0.0,
        0.0,
        0.0,
        1.0
      ],
      "name": "3c9571a018f4434da02e5b8c5a7ca542.fbx"
    },
    {
      "children": [
        3,
        5,
        7
      ],
      "name": "RootNode"
    },
    {
      "children": [
        4
      ],
      "matrix": [
        2.220446049250313e-16,
        0.0,
        1.0,
        0.0,
        0.0,
        1.0,
        0.0,
        0.0,
        -1.0,
        0.0,
        2.220446049250313e-16,
        0.0,
        -0.33270689845085144,
        -3.8219943046569824,
        -1000.0999755859375,
        1.0
      ],
      "name": "back"
    },
    {
      "name": "Object_4"
    },
    {
      "children": [
        6
      ],
      "matrix": [
        0.0,
        1.0,
        -3.3306690738754696e-16,
        0.0,
        -1.1102230246251565e-16,
        2.220446049250313e-16,
        1.0,
        0.0,
        1.0,
        -1.1102230246251565e-16,
        0.0,
        0.0,
        0.6790964007377625,
        -1000.0999755859375,
        -0.16023008525371552,
        1.0
      ],
      "name": "bottom"
    },
    {
      "name": "Object_6"
    },
    {
      "children": [
        8
      ],
      "matrix": [
        1.0,
        0.0,
        0.0,
        0.0,
        0.0,
        1.0,
        0.0,
        0.0,
        0.0,
        0.0,
        1.0,
        0.0,
        0.0,
        1.1235804557800293,
        0.0,
        1.0
      ],
      "name": "pCylinder9"
    },
    {
      "mesh": 0,
      "name": "pCylinder9_blinn2_0"
    }
  ],
  "samplers": [
    {
      "magFilter": 9729,
      "minFilter": 9987,
      "wrapS": 10497,
      "wrapT": 10497
    }
  ],
  "scene": 0,
  "scenes": [
    {
      "name": "Sketchfab_Scene",
      "nodes": [
        0
      ]
    }
  ],
  "textures": [
    {
      "sampler": 0,
      "source": 0
    }
  ]
}
