{
  "accessors": [
    {
      "bufferView": 2,
      "componentType": 5126,
      "count": 412,
      "max": [
        1.004556655883789,
        0.9999998211860657,
        1.063401222229004
      ],
      "min": [
        -1.0956953763961792,
        -1.0000008344650269,
        -1.063401222229004
      ],
      "type": "VEC3"
    },
    {
      "bufferView": 2,
      "byteOffset": 4944,
      "componentType": 5126,
      "count": 412,
      "max": [
        0.9972015023231506,
        1.0,
        0.9960335493087769
      ],
      "min": [
        -0.9964401125907898,
        -1.0,
        -0.9960335493087769
      ],
      "type": "VEC3"
    },
    {
      "bufferView": 1,
      "componentType": 5126,
      "count": 412,
      "max": [
        1.0,
        1.0
      ],
      "min": [
        -7.450580596923828e-08,
        0.0
      ],
      "type": "VEC2"
    },
    {
      "bufferView": 1,
      "byteOffset": 3296,
      "componentType": 5126,
      "count": 412,
      "max": [
        0.0,
        0.0
      ],
      "min": [
        0.0,
        0.0
      ],
      "type": "VEC2"
    },
    {
      "bufferView": 1,
      "byteOffset": 6592,
      "componentType": 5126,
      "count": 412,
      "max": [
        0.0,
        0.0
      ],
      "min": [
        0.0,
        0.0
      ],
      "type": "VEC2"
    },
    {
      "bufferView": 0,
      "componentType": 5125,
      "count": 672,
      "type": "SCALAR"
    },
    {
      "bufferView": 2,
      "byteOffset": 9888,
      "componentType": 5126,
      "count": 528,
      "max": [
        1.5757849216461182,
        1.5757849216461182,
        1.0
      ],
      "min": [
        -1.5757849216461182,
        -1.5757849216461182,
        -1.0
      ],
      "type": "VEC3"
    },
    {
      "bufferView": 2,
      "byteOffset": 16224,
      "componentType": 5126,
      "count": 528,
      "max": [
        0.9238798022270203,
        0.9238799214363098,
        1.0
      ],
      "min": [
        -0.9238798022270203,
        -0.9238795638084412,
        -1.0
      ],
      "type": "VEC3"
    },
    {
      "bufferView": 1,
      "byteOffset": 9888,
      "componentType": 5126,
      "count": 528,
      "max": [
        1.0,
        1.0
      ],
      "min": [
        0.0,
        0.01000000536441803
      ],
      "type": "VEC2"
    },
    {
      "bufferView": 0,
      "byteOffset": 2688,
      "componentType": 5125,
      "count": 804,
      "type": "SCALAR"
    },
    {
      "bufferView": 2,
      "byteOffset": 22560,
      "componentType": 5126,
      "count": 556,
      "max": [
        1.0,
        7.632721424102783,
        0.9982681274414063
      ],
      "min": [
        -1.0,
        -0.19184207916259766,
        -1.076939582824707
      ],
      "type": "VEC3"
    },
    {
      "bufferView": 2,
      "byteOffset": 29232,
      "componentType": 5126,
      "count": 556,
      "max": [
        0.9997699856758118,
        0.8296595215797424,
        0.9950821399688721
      ],
      "min": [
        -0.9997699856758118,
        -0.8296589851379395,
        -0.995081901550293
      ],
      "type": "VEC3"
    },
    {
      "bufferView": 1,
      "byteOffset": 14112,
      "componentType": 5126,
      "count": 556,
      "max": [
        1.0,
        0.875
      ],
      "min": [
        0.0,
        0.375
      ],
      "type": "VEC2"
    },
    {
      "bufferView": 1,
      "byteOffset": 18560,
      "componentType": 5126,
      "count": 556,
      "max": [
        0.0,
        0.0
      ],
      "min": [
        0.0,
        0.0
      ],
      "type": "VEC2"
    },
    {
      "bufferView": 0,
      "byteOffset": 5904,
      "componentType": 5125,
      "count": 1110,
      "type": "SCALAR"
    },
    {
      "bufferView": 2,
      "byteOffset": 35904,
      "componentType": 5126,
      "count": 118,
      "max": [
        0.40293729305267334,
        1.0,
        0.9959330558776855
      ],
      "min": [
        -3.9298582077026367,
        -1.0,
        -0.5113227367401123
      ],
      "type": "VEC3"
    },
    {
      "bufferView": 2,
      "byteOffset": 37320,
      "componentType": 5126,
      "count": 118,
      "max": [
        1.0,
        1.0,
        1.0
      ],
      "min": [
        -1.0,
        -1.0,
        -1.0
      ],
      "type": "VEC3"
    },
    {
      "bufferView": 1,
      "byteOffset": 23008,
      "componentType": 5126,
      "count": 118,
      "max": [
        0.875,
        1.0
      ],
      "min": [
        0.125,
        0.0
      ],
      "type": "VEC2"
    },
    {
      "bufferView": 0,
      "byteOffset": 10344,
      "componentType": 5125,
      "count": 252,
      "type": "SCALAR"
    }
  ],
  "asset": {
    "extras": {
      "author": "Diego T. Yamaguchi (https://sketchfab.com/freshlybaked)",
      "license": "CC-BY-4.0 (http://creativecommons.org/licenses/by/4.0/)",
      "source": "https://sketchfab.com/3d-models/key-655394e6b4634d5fa60356e64624521b",
      "title": "Key"
    },
    "generator": "Sketchfab-12.65.0",
    "version": "2.0"
  },
  "bufferViews": [
    {
      "buffer": 0,
      "byteLength": 11352,
      "name": "floatBufferViews",
      "target": 34963
    },
    {
      "buffer": 0,
      "byteLength": 23952,
      "byteOffset": 11352,
      "byteStride": 8,
      "name": "floatBufferViews",
      "target": 34962
    },
    {
      "buffer": 0,
      "byteLength": 38736,
      "byteOffset": 35304,
      "byteStride": 12,
      "name": "floatBufferViews",
      "target": 34962
    }
  ],
  "buffers": [
    {
      "byteLength": 74040,
      "uri": "scene.bin"
    }
  ],
  "extensionsRequired": [
    "KHR_materials_pbrSpecularGlossiness"
  ],
  "extensionsUsed": [
    "KHR_materials_pbrSpecularGlossiness"
  ],
  "materials": [
    {
      "doubleSided": true,
      "extensions": {
        "KHR_materials_pbrSpecularGlossiness": {
          "diffuseFactor": [
            0.8613095222,
            1.0,
            0.1681438084,
            1.0
          ],
          "glossinessFactor": 0.219089023,
          "specularFactor": [
            0.08303481977654584,
            0.08303481977654584,
            0.08303481977654584
          ]
        }
      },
      "name": "metal"
    }
  ],
  "meshes": [
    {
      "name": "bow_metal_0",
      "primitives": [
        {
          "attributes": {
            "NORMAL": 1,
            "POSITION": 0,
            "TEXCOORD_0": 2,
            "TEXCOORD_1": 3,
            "TEXCOORD_2": 4
          },
          "indices": 5,
          "material": 0,
          "mode": 4
        }
      ]
    },
    {
      "name": "shaft_metal_0",
      "primitives": [
        {
          "attributes": {
            "NORMAL": 7,
            "POSITION": 6,
            "TEXCOORD_0": 8
          },
          "indices": 9,
          "material": 0,
          "mode": 4
        }
      ]
    },
    {
      "name": "skulls_metal_0",
      "primitives": [
        {
          "attributes": {
            "NORMAL": 11,
            "POSITION": 10,
            "TEXCOORD_0": 12,
            "TEXCOORD_1": 13
          },
          "indices": 14,
          "material": 0,
          "mode": 4
        }
      ]
    },
    {
      "name": "bits_metal_0",
      "primitives": [
        {
          "attributes": {
            "NORMAL": 16,
            "POSITION": 15,
            "TEXCOORD_0": 17
          },
          "indices": 18,
          "material": 0,
          "mode": 4
        }
      ]
    }
  ],
  "nodes": [
    {
      "children": [
        1
      ],
      "matrix": [
        1.0,
        0.0,
        0.0,
        0.0,
        0.0,
        2.220446049250313e-16,
        -1.0,
        0.0,
        0.0,
        1.0,
        2.220446049250313e-16,
        0.0,
        -6.172666072845459,
        11.426985740661621,
        0.17663078010082497,
        1.0
      ],
      "name": "Sketchfab_model"
    },
    {
      "children": [
        2
      ],
      "matrix": [
        1.0,
        0.0,
        0.0,
        0.0,
        0.0,
        0.0,
        1.0,
        0.0,
        0.0,
        -1.0,
        0.0,
        0.0,
        0.0,
        0.0,
        0.0,
        1.0
      ],
      "name": "e6af16d2003d4196a1f49ae70e9f7457.fbx"
    },
    {
      "children": [
        3,
        5,
        7,
        9
      ],
      "name": "RootNode"
    },
    {
      "children": [
        4
      ],
      "matrix": [
        7.549789970973109e-06,
        99.99999999999967,
        -2.980231184057658e-06,
        0.0,
        5.583984058345026e-06,
        -5.898549324595607e-07,
        -19.792240142821466,
        0.0,
        -99.99999999999572,
        7.549789121652495e-06,
        -2.8212996916465727e-05,
        0.0,
        0.0,
        0.0,
        -1.0623947673593648e-05,
        1.0
      ],
      "name": "bow"
    },
    {
      "mesh": 0,
      "name": "bow_metal_0"
    },
    {
      "children": [
        6
      ],
      "matrix": [
        16.10948371887207,
        0.0,
        0.0,
        0.0,
        0.0,
        -2.6245680321302846e-06,
        -16.109483718871857,
        0.0,
        0.0,
        346.1840515136673,
        -5.6400540867224186e-05,
        0.0,
        0.0,
        243.9439239501953,
        0.0,
        1.0
      ],
      "name": "shaft"
    },
    {
      "mesh": 1,
      "name": "shaft_metal_0"
    },
    {
      "children": [
        8
      ],
      "matrix": [
        46.303375244140625,
        -6.91769908029867e-16,
        -2.3298844495575065e-17,
        0.0,
        5.1012907075594885e-18,
        0.5428403678075417,
        -5.979423291915023,
        0.0,
        6.904997195266765e-16,
        46.07746757462079,
        4.183130751032085,
        0.0,
        1.425820651716637e-17,
        5.002474784851074,
        22.756853103637695,
        1.0
      ],
      "name": "skulls"
    },
    {
      "mesh": 2,
      "name": "skulls_metal_0"
    },
    {
      "children": [
        10
      ],
      "matrix": [
        28.212011337280273,
        0.0,
        0.0,
        0.0,
        -0.0,
        -2.599774653707936e-06,
        -15.957303047179964,
        0.0,
        0.0,
        109.52072143554543,
        -1.784319034376281e-05,
        0.0,
        -11.517971992492676,
        476.18511962890625,
        1.7194901147377095e-07,
        1.0
      ],
      "name": "bits"
    },
    {
      "mesh": 3,
      "name": "bits_metal_0"
    }
  ],
  "scene": 0,
  "scenes": [
    {
      "name": "Sketchfab_Scene",
      "nodes": [
        0
      ]
    }
  ]
}
