{
  "accessors": [
    {
      "bufferView": 2,
      "componentType": 5126,
      "count": 1385,
      "max": [
        21.733503341674805,
        30.1241455078125,
        21.094087600708008
      ],
      "min": [
        -22.262739181518555,
        -0.05415992811322212,
        -20.839040756225586
      ],
      "type": "VEC3"
    },
    {
      "bufferView": 2,
      "byteOffset": 16620,
      "componentType": 5126,
      "count": 1385,
      "max": [
        0.9965141415596008,
        0.9857704043388367,
        0.9990049004554749
      ],
      "min": [
        -0.988448977470398,
        -0.6948402523994446,
        -0.9670482277870178
      ],
      "type": "VEC3"
    },
    {
      "bufferView": 3,
      "componentType": 5126,
      "count": 1385,
      "max": [
        0.9929530024528503,
        0.8828330636024475,
        0.9988992214202881,
        1.0
      ],
      "min": [
        -0.9989879131317139,
        -0.9310689568519592,
        -0.99814373254776,
        -1.0
      ],
      "type": "VEC4"
    },
    {
      "bufferView": 1,
      "componentType": 5126,
      "count": 1385,
      "max": [
        0.9697665572166443,
        0.9762172102928162
      ],
      "min": [
        0.023782789707183838,
        0.023782730102539063
      ],
      "type": "VEC2"
    },
    {
      "bufferView": 1,
      "byteOffset": 11080,
      "componentType": 5126,
      "count": 1385,
      "max": [
        0.9697665572166443,
        0.9762172102928162
      ],
      "min": [
        0.023782789707183838,
        0.023782730102539063
      ],
      "type": "VEC2"
    },
    {
      "bufferView": 0,
      "componentType": 5125,
      "count": 2739,
      "type": "SCALAR"
    }
  ],
  "asset": {
    "extras": {
      "author": "Natural_Disbuster (https://sketchfab.com/lemedesign)",
      "license": "CC-BY-4.0 (http://creativecommons.org/licenses/by/4.0/)",
      "source": "https://sketchfab.com/3d-models/low-poly-shrub-or-grass-clover-acb337dd8f5e41beba654111e3f2475a",
      "title": "Low Poly Shrub OR Grass Clover"
    },
    "generator": "Sketchfab-12.65.0",
    "version": "2.0"
  },
  "bufferViews": [
    {
      "buffer": 0,
      "byteLength": 10956,
      "name": "floatBufferViews",
      "target": 34963
    },
    {
      "buffer": 0,
      "byteLength": 22160,
      "byteOffset": 10956,
      "byteStride": 8,
      "name": "floatBufferViews",
      "target": 34962
    },
    {
      "buffer": 0,
      "byteLength": 33240,
      "byteOffset": 33116,
      "byteStride": 12,
      "name": "floatBufferViews",
      "target": 34962
    },
    {
      "buffer": 0,
      "byteLength": 22160,
      "byteOffset": 66356,
      "byteStride": 16,
      "name": "floatBufferViews",
      "target": 34962
    }
  ],
  "buffers": [
    {
      "byteLength": 88516,
      "uri": "scene.bin"
    }
  ],
  "images": [
    {
      "uri": "textures/cloversMat_baseColor.png"
    },
    {
      "uri": "textures/cloversMat_normal.png"
    }
  ],
  "materials": [
    {
      "doubleSided": true,
      "name": "cloversMat",
      "normalTexture": {
        "index": 1
      },
      "pbrMetallicRoughness": {
        "baseColorTexture": {
          "index": 0
        },
        "metallicFactor": 0.0,
        "roughnessFactor": 0.8211145618000169
      }
    }
  ],
  "meshes": [
    {
      "name": "Plane.012_cloversMat_0",
      "primitives": [
        {
          "attributes": {
            "NORMAL": 1,
            "POSITION": 0,
            "TANGENT": 2,
            "TEXCOORD_0": 3,
            "TEXCOORD_1": 4
          },
          "indices": 5,
          "material": 0,
          "mode": 4
        }
      ]
    }
  ],
  "nodes": [
    {
      "children": [
        1
      ],
      "matrix": [
        1.0,
        0.0,
        0.0,
        0.0,
        0.0,
        2.220446049250313e-16,
        -1.0,
        0.0,
        0.0,
        1.0,
        2.220446049250313e-16,
        0.0,
        0.0,
        0.0,
        0.0,
        1.0
      ],
      "name": "Sketchfab_model"
    },
    {
      "children": [
        2
      ],
      "matrix": [
        0.009999999776482582,
        0.0,
        0.0,
        0.0,
        0.0,
        0.0,
        0.009999999776482582,
        0.0,
        0.0,
        -0.009999999776482582,
        0.0,
        0.0,
        0.0,
        0.0,
        0.0,
        1.0
      ],
      "name": "e0529423171c4a999914223d52c67785.fbx"
    },
    {
      "children": [
        3
      ],
      "name": "RootNode"
    },
    {
      "children": [
        4
      ],
      "name": "Plane.012"
    },
    {
      "mesh": 0,
      "name": "Plane.012_cloversMat_0"
    }
  ],
  "samplers": [
    {
      "magFilter": 9729,
      "minFilter": 9987,
      "wrapS": 10497,
      "wrapT": 10497
    }
  ],
  "scene": 0,
  "scenes": [
    {
      "name": "Sketchfab_Scene",
      "nodes": [
        0
      ]
    }
  ],
  "textures": [
    {
      "sampler": 0,
      "source": 0
    },
    {
      "sampler": 0,
      "source": 1
    }
  ]
}
